<svg width="14" height="16" viewBox="0 0 14 16" fill="none" xmlns="http://www.w3.org/2000/svg">
<path d="M12.3601 6.05823C12.3601 6.05823 11.9827 11.1163 11.6807 13.3057C11.6807 14.2116 10.8503 14.9666 9.94432 14.9666C9.94432 14.9666 9.94432 14.9666 9.86883 14.9666C7.90598 14.9666 5.94312 15.0421 3.98027 14.9666C3.07434 14.9666 2.3194 14.2871 2.2439 13.3812C2.01742 11.1918 1.56445 6.13372 1.56445 6.13372" stroke="#828D99" stroke-miterlimit="10" stroke-linecap="round" stroke-linejoin="round"/>
<path d="M13.417 3.56689H0.583008" stroke="#828D99" stroke-miterlimit="10" stroke-linecap="round" stroke-linejoin="round"/>
<path d="M10.9256 3.56681C10.3217 3.56681 9.79321 3.11384 9.71772 2.58538L9.56673 1.67945C9.49123 1.22648 9.03827 1 8.6608 1H5.41454C4.96158 1 4.5841 1.30198 4.50861 1.67945L4.28213 2.58538C4.13114 3.18934 3.67817 3.56681 3.07422 3.56681" stroke="#828D99" stroke-miterlimit="10" stroke-linecap="round" stroke-linejoin="round"/>
</svg>
