<svg width="14" height="12" viewBox="0 0 14 12" fill="none" xmlns="http://www.w3.org/2000/svg">
<path d="M2.31518 11.9934H2.23711C2.0847 11.9869 1.93378 11.9602 1.78816 11.9142L1.63852 11.8614C1.19717 11.6777 0.843683 11.3267 0.652987 10.883C0.462292 10.4392 0.449378 9.93764 0.617008 9.48442L0.656045 9.37214L5.38624 0.966923C5.50309 0.751682 5.66063 0.56198 5.84984 0.408612C6.03905 0.255244 6.25621 0.141235 6.48889 0.0731575C6.72157 0.00507946 6.96522 -0.0157847 7.20585 0.0118214C7.44648 0.0394274 7.67937 0.114958 7.89121 0.234034C8.15613 0.382024 8.37993 0.59547 8.54185 0.854648L8.60043 0.960314L13.3631 9.42501C13.4912 9.74174 13.5304 10.0882 13.4764 10.4261C13.4225 10.7641 13.2774 11.0803 13.0573 11.3397C12.7497 11.7094 12.3144 11.9456 11.8406 12H2.31518V11.9934ZM11.7105 11.003C11.9383 10.9893 12.1518 10.8856 12.3051 10.714C12.4583 10.5424 12.5392 10.3167 12.5303 10.0853V9.92022V9.85413L7.78712 1.4423C7.67604 1.23984 7.49059 1.09015 7.27122 1.02584C7.05184 0.961529 6.81629 0.987791 6.61593 1.09894C6.50108 1.16506 6.40134 1.25508 6.32317 1.36307L6.27111 1.44891L1.56696 9.80133C1.48109 10.0168 1.48286 10.258 1.57189 10.4721C1.66092 10.6862 1.82993 10.8557 2.04192 10.9436L2.23059 10.9965H11.743L11.7105 11.003ZM6.50533 8.75813C6.50533 8.6268 6.55674 8.5008 6.64825 8.40793C6.73977 8.31506 6.86389 8.26293 6.99331 8.26293C7.05709 8.26206 7.1204 8.27399 7.17956 8.29816C7.23873 8.32232 7.29258 8.3582 7.33798 8.40366C7.38338 8.44912 7.41944 8.50329 7.44405 8.563C7.46865 8.62272 7.4813 8.6868 7.4813 8.75153C7.4813 8.88286 7.42989 9.00878 7.33837 9.10165C7.24686 9.19452 7.12274 9.24673 6.99331 9.24673C6.86389 9.24673 6.73977 9.19452 6.64825 9.10165C6.55674 9.00878 6.50533 8.88286 6.50533 8.75153V8.75813ZM6.50533 6.92918V4.81627C6.50872 4.68548 6.56232 4.56128 6.65469 4.47001C6.74706 4.37874 6.8709 4.32763 6.99983 4.32767C7.11701 4.32658 7.23056 4.36892 7.31919 4.44672C7.40783 4.52451 7.46547 4.63242 7.4813 4.75025V6.86317C7.48217 6.92844 7.47017 6.99322 7.44595 7.0537C7.42174 7.11418 7.38581 7.16914 7.34032 7.2153C7.29483 7.26147 7.24071 7.29785 7.18111 7.32242C7.12151 7.34699 7.05764 7.35926 6.99331 7.35837C6.87553 7.35784 6.76192 7.31409 6.67343 7.23521C6.58494 7.15633 6.52755 7.04763 6.51184 6.92918H6.50533Z" fill="#FF4A33"/>
</svg>
